<svg width="30" height="30" viewBox="0 0 30 30" fill="none" xmlns="http://www.w3.org/2000/svg">
<path fill-rule="evenodd" clip-rule="evenodd" d="M8.71975 26.8844C8.32224 26.501 8.32224 25.8794 8.71975 25.4959L20.2803 14.3451C20.6778 13.9617 21.3222 13.9617 21.7197 14.3451C22.1173 14.7286 22.1172 15.3502 21.7197 15.7336L10.1592 26.8844C9.76173 27.2678 9.11725 27.2678 8.71975 26.8844Z" fill="white"/>
<path fill-rule="evenodd" clip-rule="evenodd" d="M8.71975 3.19431C8.32224 3.57773 8.32224 4.19937 8.71975 4.58279L20.2803 15.7336C20.6778 16.117 21.3222 16.117 21.7197 15.7336C22.1172 15.3502 22.1172 14.7285 21.7197 14.3451L10.1592 3.19431C9.76173 2.81089 9.11725 2.81089 8.71975 3.19431Z" fill="white"/>
</svg>
