<svg width="30" height="30" viewBox="0 0 30 30" fill="none" xmlns="http://www.w3.org/2000/svg">
<path fill-rule="evenodd" clip-rule="evenodd" d="M21.7197 3.19419C22.1172 3.57761 22.1172 4.19925 21.7197 4.58267L10.1592 15.7335C9.76169 16.1169 9.11721 16.1169 8.71971 15.7335C8.3222 15.3501 8.3222 14.7284 8.71971 14.345L20.2802 3.19419C20.6777 2.81077 21.3222 2.81077 21.7197 3.19419Z" fill="white"/>
<path fill-rule="evenodd" clip-rule="evenodd" d="M21.7197 26.8843C22.1172 26.5009 22.1172 25.8792 21.7197 25.4958L10.1592 14.345C9.7617 13.9616 9.11721 13.9616 8.71971 14.345C8.3222 14.7284 8.32221 15.3501 8.71971 15.7335L20.2802 26.8843C20.6777 27.2677 21.3222 27.2677 21.7197 26.8843Z" fill="white"/>
</svg>
