<svg width="20" height="20" viewBox="0 0 20 20" fill="none" xmlns="http://www.w3.org/2000/svg">
<path fill-rule="evenodd" clip-rule="evenodd" d="M3.98937 16.0104C3.40358 15.4246 3.40358 14.4749 3.98937 13.8891L13.8889 3.98961C14.4747 3.40383 15.4244 3.40383 16.0102 3.98961C16.596 4.5754 16.596 5.52515 16.0102 6.11093L6.11069 16.0104C5.5249 16.5962 4.57516 16.5962 3.98937 16.0104Z" fill="#252525"/>
<path fill-rule="evenodd" clip-rule="evenodd" d="M16.0097 16.0104C16.5954 15.4246 16.5954 14.4749 16.0097 13.8891L6.11016 3.98961C5.52437 3.40383 4.57462 3.40383 3.98884 3.98961C3.40305 4.5754 3.40305 5.52515 3.98884 6.11093L13.8883 16.0104C14.4741 16.5962 15.4239 16.5962 16.0097 16.0104Z" fill="#252525"/>
</svg>
