<svg width="20" height="20" viewBox="0 0 20 20" fill="none" xmlns="http://www.w3.org/2000/svg">
<path fill-rule="evenodd" clip-rule="evenodd" d="M1.5 5C1.5 4.17157 2.17157 3.5 3 3.5H17C17.8284 3.5 18.5 4.17157 18.5 5C18.5 5.82843 17.8284 6.5 17 6.5H3C2.17157 6.5 1.5 5.82843 1.5 5Z" fill="#252525"/>
<path fill-rule="evenodd" clip-rule="evenodd" d="M1.5 10C1.5 9.17157 2.17157 8.5 3 8.5H17C17.8284 8.5 18.5 9.17157 18.5 10C18.5 10.8284 17.8284 11.5 17 11.5H3C2.17157 11.5 1.5 10.8284 1.5 10Z" fill="#252525"/>
<path fill-rule="evenodd" clip-rule="evenodd" d="M1.5 15C1.5 14.1716 2.17157 13.5 3 13.5H17C17.8284 13.5 18.5 14.1716 18.5 15C18.5 15.8284 17.8284 16.5 17 16.5H3C2.17157 16.5 1.5 15.8284 1.5 15Z" fill="#252525"/>
</svg>
