<svg width="14" height="14" viewBox="0 0 14 14" fill="none" xmlns="http://www.w3.org/2000/svg">
<path fill-rule="evenodd" clip-rule="evenodd" d="M2.01001 5.01475C2.34642 4.73046 2.89186 4.73046 3.22827 5.01475L7.60319 8.71175C7.9396 8.99603 7.9396 9.45695 7.60319 9.74124C7.26677 10.0255 6.72134 10.0255 6.38492 9.74124L2.01001 6.04424C1.67359 5.75995 1.67359 5.29903 2.01001 5.01475Z" fill="#11141B"/>
<path fill-rule="evenodd" clip-rule="evenodd" d="M11.9794 5.01493C11.6429 4.73074 11.0973 4.73074 10.7608 5.01493L6.38462 8.71078C6.04812 8.99496 6.04812 9.45572 6.38462 9.7399C6.72112 10.0241 7.2667 10.0241 7.6032 9.7399L11.9794 6.04406C12.3159 5.75987 12.3159 5.29911 11.9794 5.01493Z" fill="#11141B"/>
</svg>
