<svg width="20" height="20" viewBox="0 0 20 20" fill="none" xmlns="http://www.w3.org/2000/svg">
<path fill-rule="evenodd" clip-rule="evenodd" d="M9.16618 1.66663C7.96816 1.66676 6.7876 1.95388 5.72333 2.50395C4.65906 3.05403 3.74205 3.85106 3.04907 4.82831C2.35608 5.80556 1.90729 6.93461 1.74025 8.12093C1.57321 9.30724 1.6928 10.5163 2.08899 11.6469C2.48519 12.7775 3.14646 13.7968 4.01746 14.6194C4.88846 15.4419 5.94383 16.0439 7.09524 16.3748C8.24664 16.7057 9.46058 16.756 10.6354 16.5215C11.8102 16.2869 12.9118 15.7743 13.8478 15.0266L16.9103 18.0891C17.0675 18.2409 17.278 18.3249 17.4965 18.323C17.715 18.3211 17.924 18.2335 18.0785 18.079C18.233 17.9245 18.3207 17.7155 18.3226 17.497C18.3245 17.2785 18.2405 17.068 18.0887 16.9108L15.0262 13.8483C15.9078 12.7448 16.46 11.4149 16.6191 10.0114C16.7782 8.60801 16.5378 7.18818 15.9255 5.91537C15.3132 4.64257 14.3539 3.56852 13.1581 2.81687C11.9623 2.06522 10.5786 1.6665 9.16618 1.66663ZM4.16618 9.16663C4.16618 8.51002 4.29551 7.85984 4.54678 7.25321C4.79806 6.64658 5.16635 6.09539 5.63065 5.63109C6.09494 5.1668 6.64614 4.7985 7.25276 4.54723C7.85939 4.29596 8.50957 4.16663 9.16618 4.16663C9.82279 4.16663 10.473 4.29596 11.0796 4.54723C11.6862 4.7985 12.2374 5.1668 12.7017 5.63109C13.166 6.09539 13.5343 6.64658 13.7856 7.25321C14.0369 7.85984 14.1662 8.51002 14.1662 9.16663C14.1662 10.4927 13.6394 11.7645 12.7017 12.7022C11.764 13.6398 10.4923 14.1666 9.16618 14.1666C7.8401 14.1666 6.56833 13.6398 5.63065 12.7022C4.69297 11.7645 4.16618 10.4927 4.16618 9.16663Z" fill="white"/>
</svg>
