<svg width="78" height="44" viewBox="0 0 78 44" fill="none" xmlns="http://www.w3.org/2000/svg">
<g clip-path="url(#clip0_2019_12)">
<path fill-rule="evenodd" clip-rule="evenodd" d="M5.73522 22.0001C5.73522 30.7566 12.8338 37.8551 21.5903 37.8551C30.3468 37.8551 37.4453 30.7566 37.4453 22.0001C37.4453 13.2436 30.3468 6.14501 21.5903 6.14501C12.8338 6.14501 5.73522 13.2436 5.73522 22.0001ZM21.5903 0.859985C9.91493 0.859985 0.450195 10.3247 0.450195 22.0001C0.450195 33.6754 9.91493 43.1401 21.5903 43.1401C33.2656 43.1401 42.7304 33.6754 42.7304 22.0001C42.7304 10.3247 33.2656 0.859985 21.5903 0.859985ZM30.0457 31.5131H25.7605V23.8459H17.4187V31.5131H13.1336V12.4871H17.4187V20.0407H25.7605V12.4871H30.0457V31.5131ZM76.487 3.85999C77.4806 3.85999 77.9252 5.10653 77.156 5.73536L71.6166 10.2634C71.1446 10.6492 70.5538 10.86 69.9442 10.86H46.8023C46.11 8.31337 44.5595 6.08395 42.413 4.54867L41.4502 3.85999H76.487ZM70.1654 20.7342C70.9329 20.1046 70.4877 18.86 69.495 18.86H48.4502C49.1455 21.1415 49.1455 23.5785 48.4502 25.86H62.9717C63.5828 25.86 64.1751 25.6481 64.6476 25.2605L70.1654 20.7342ZM59.1519 32.86C60.1801 32.86 60.603 34.1794 59.7662 34.7771L54.7393 38.3678C54.2911 38.6879 53.7541 38.86 53.2034 38.86H41.4502L42.0945 38.3998C44.0812 36.9807 45.6677 35.0724 46.7002 32.86H59.1519Z" fill="#252525"/>
</g>
<defs>
<clipPath id="clip0_2019_12">
<rect width="78" height="44" fill="white"/>
</clipPath>
</defs>
</svg>
