<svg width="100" height="100" viewBox="0 0 100 100" fill="none" xmlns="http://www.w3.org/2000/svg">
<path d="M49.9457 2.34743e-05C49.2062 -0.00396281 48.8006 0.500302 48.687 1.09027L45.6325 11.3928C38.3616 12.2072 31.4709 15.0675 25.7606 19.6415C22.5885 17.9194 19.4174 16.1893 16.2433 14.4762C15.6553 14.1593 15.1411 14.1842 14.6647 14.6626C14.1883 15.1409 14.3239 15.8455 14.5929 16.3538L19.6785 25.7215C15.081 31.4392 12.2051 38.347 11.3869 45.638C7.91884 46.6665 4.44576 47.686 0.982638 48.7214C0.344826 48.9128 -0.00198462 49.2934 8.54347e-06 49.9691C0.00200171 50.6438 0.594968 51.0474 1.14508 51.2168L11.381 54.2494C12.1765 61.5561 15.0378 68.4847 19.6297 74.2237C17.8986 77.4147 16.1576 80.6037 14.4345 83.7957C14.1186 84.3837 14.1435 84.896 14.6218 85.3723C15.1002 85.8487 15.8048 85.7151 16.313 85.4461L25.7337 80.3337C31.4492 84.9236 38.3517 87.7943 45.6365 88.6112C46.6649 92.0792 47.6864 95.5533 48.7219 99.0174C48.9132 99.6552 49.2939 100.002 49.9696 100C50.6443 99.998 51.0479 99.405 51.2173 98.8549L54.2499 88.6191C61.5732 87.8211 68.5155 84.9448 74.2573 80.3297L83.7168 85.466C84.4035 85.8148 84.8669 85.8766 85.3931 85.3564C85.9183 84.8372 85.8495 84.1924 85.5127 83.6951L80.3633 74.2037C84.9455 68.4703 87.8028 61.5522 88.6021 54.2564L98.8938 51.2069C99.6253 50.9687 99.997 50.6847 100 49.9452C100.005 49.2057 99.5007 48.8001 98.9107 48.6865L88.5732 45.6221C87.7566 38.3455 84.8929 31.4498 80.3145 25.7355L85.426 16.3209C85.7748 15.6352 85.8366 15.1708 85.3163 14.6446C84.7144 14.1214 84.2091 14.2789 83.655 14.5261L74.2224 19.6474C68.4888 15.0434 61.5596 12.1726 54.2499 11.3729L51.2063 1.10821C50.9682 0.375731 50.6851 0.00400976 49.9457 2.34743e-05ZM49.9427 5.22007V44.0206C48.9321 44.0303 47.9406 44.2961 47.0606 44.7929L40.8379 36.908L49.9427 5.22007ZM55.1747 14.4991C61.0475 15.3485 66.6158 17.6492 71.3752 21.1931L59.1282 27.8402L55.1747 14.4991ZM44.7037 14.53L40.7731 27.7894C36.721 25.586 32.6679 23.3925 28.6148 21.1911C33.3453 17.6767 38.8734 15.3883 44.7037 14.53ZM18.3122 18.312L37.8133 37.7761L37.8033 37.806L30.3529 40.0144L18.3122 18.312ZM62.1618 37.795L62.0681 37.7691L59.8766 30.3745L81.622 18.3359L62.1618 37.795ZM78.7748 28.5697C82.3081 33.3104 84.6083 38.8546 85.4688 44.7042L72.1585 40.7578L78.7748 28.5697ZM21.2262 28.5797L27.8385 40.7608L14.5162 44.7092C15.3815 38.8597 17.6873 33.317 21.2262 28.5797ZM62.966 40.8036L94.7789 49.9432H55.98C55.9701 48.9218 55.6987 47.92 55.1917 47.0332L62.966 40.8036ZM44.021 49.9432V50C44.0212 50.9974 44.271 51.979 44.7475 52.8552L36.8755 59.0509L29.0743 56.8166L5.16031 49.9691L44.021 49.9432ZM85.5017 55.1732C84.6528 61.0408 82.3549 66.6042 78.8156 71.3605L72.1744 59.1226L85.5017 55.1732ZM14.5132 55.1772L27.8226 59.1206C25.6032 63.2026 23.3948 67.2855 21.1774 71.3685C17.6459 66.6085 15.3556 61.044 14.5132 55.1772ZM52.8846 55.236L59.0843 62.9993L56.8301 70.8692L49.9676 94.8398L49.9417 55.9774C50.9951 55.9794 52.0873 55.7044 52.8846 55.236ZM69.6381 59.874L81.7007 81.6641L62.1349 62.0984L69.6381 59.874ZM37.7944 62.1632L40.0167 69.6594L18.2693 81.7249L37.7944 62.1632ZM59.1371 72.1209L71.413 78.788C66.643 82.338 61.0615 84.6401 55.1757 85.4849L59.1371 72.1209ZM40.7622 72.1737C42.0747 76.6125 43.3951 81.0442 44.7086 85.4819C38.8651 84.6169 33.3279 82.3144 28.5939 78.781L40.7622 72.1737Z" fill="#3F3F3F"/>
</svg>
